<svg xmlns="http://www.w3.org/2000/svg" viewBox="0 0 480 520" fill="none" aria-hidden="true">
  <defs>
    <linearGradient id="hg" x1="0%" y1="0%" x2="100%" y2="100%">
      <stop offset="0%" stop-color="#f5f5f4"/>
      <stop offset="100%" stop-color="#e7e5e4"/>
    </linearGradient>
    <linearGradient id="ag" x1="0%" y1="100%" x2="100%" y2="0%">
      <stop offset="0%" stop-color="#0d9488" stop-opacity="0.15"/>
      <stop offset="100%" stop-color="#14b8a6" stop-opacity="0.35"/>
    </linearGradient>
  </defs>
  <rect width="480" height="520" rx="32" fill="url(#hg)"/>
  <rect x="40" y="48" width="400" height="280" rx="20" fill="#ffffff" stroke="#d6d3d1" stroke-width="1.5"/>
  <rect x="64" y="80" width="120" height="12" rx="6" fill="#d6d3d1" opacity="0.8"/>
  <rect x="64" y="108" width="200" height="10" rx="5" fill="#e7e5e4"/>
  <rect x="64" y="132" width="160" height="10" rx="5" fill="#e7e5e4"/>
  <rect x="64" y="168" width="280" height="14" rx="7" fill="#ccfbf1"/>
  <rect x="64" y="194" width="240" height="14" rx="7" fill="#f5f5f4"/>
  <rect x="64" y="220" width="200" height="14" rx="7" fill="#f5f5f4"/>
  <circle cx="380" cy="120" r="56" fill="url(#ag)"/>
  <rect x="56" y="360" width="160" height="120" rx="16" fill="#0d9488" opacity="0.12"/>
  <rect x="240" y="380" width="184" height="88" rx="16" fill="#ffffff" stroke="#d6d3d1" stroke-width="1.5"/>
  <path d="M268 420h88M268 438h64" stroke="#a8a29e" stroke-width="8" stroke-linecap="round"/>
</svg>
